<svg xmlns="http://www.w3.org/2000/svg" width="16" height="16" viewBox="0 0 16 16">
  <g fill="none" fill-rule="evenodd">
    <rect width="16" height="16" fill="#0F0" fill-rule="nonzero"/>
    <g fill="#FEFEFE" transform="translate(.963 .963)">
      <path d="M10.6457471 3.35425293C10.7226618 2.4774246 10.4257708 1.57413759 9.75476643.903133178 8.55058886-.301044393 6.59787679-.301044393 5.39369922.903133178 4.18952165 2.10761841 4.18952165 4.06002282 5.39369922 5.26420039 6.06470363 5.9352048 6.96799064 6.2320958 7.84481897 6.15518103 7.7679042 7.03200936 8.0647952 7.93529637 8.73579961 8.60630078 9.93997718 9.81047835 11.8923816 9.81047835 13.0968668 8.60630078 14.3010444 7.40212321 14.3010444 5.44941114 13.0968668 4.24523357 12.4258624 3.57422916 11.5225754 3.27733816 10.6457471 3.35425293M6.61449038 2.12392434C7.14458694 1.59352011 8.0038787 1.59352011 8.53428293 2.12392434 9.06437949 2.6540209 9.06437949 3.51362032 8.53428293 4.04371689 8.0038787 4.57381345 7.14458694 4.57381345 6.61449038 4.04371689 6.08408615 3.51362032 6.08408615 2.6540209 6.61449038 2.12392434M11.8760757 7.38550962C11.3459791 7.91591385 10.4863797 7.91591385 9.95628311 7.38550962 9.42618655 6.85541306 9.42618655 5.99581364 9.95628311 5.46571707 10.4863797 4.93562051 11.3459791 4.93562051 11.8760757 5.46571707 12.4061722 5.99581364 12.4064799 6.85541306 11.8760757 7.38550962M6.15518103 7.84481897C6.2320958 6.96799064 5.9352048 6.06470363 5.26420039 5.39369922 4.06002282 4.18952165 2.10731075 4.18952165.903133178 5.39369922-.301044393 6.59818445-.301044393 8.55058886.903133178 9.75476643 1.57413759 10.4257708 2.4774246 10.7226618 3.35425293 10.6457471 3.27733816 11.5225754 3.57422916 12.4258624 4.24523357 13.0968668 5.44941114 14.3010444 7.40181555 14.3010444 8.60630078 13.0968668 9.81047835 11.8926893 9.81047835 9.93997718 8.60630078 8.73579961 7.93529637 8.0647952 7.03200936 7.7679042 6.15518103 7.84481897M2.12392434 6.61449038C2.6540209 6.08408615 3.51331266 6.08408615 4.04371689 6.61449038 4.57381345 7.14458694 4.57381345 8.00418636 4.04371689 8.53428293 3.51331266 9.06437949 2.6540209 9.06437949 2.12361668 8.53428293 1.59352011 8.00418636 1.59352011 7.14458694 2.12392434 6.61449038M7.38550962 11.8760757C6.85541306 12.4064799 5.99581364 12.4064799 5.46571707 11.8763833 4.93562051 11.3459791 4.93562051 10.4863797 5.46571707 9.95628311 5.99581364 9.42618655 6.85541306 9.42618655 7.38550962 9.95628311 7.91560619 10.4863797 7.91591385 11.3459791 7.38550962 11.8760757"/>
    </g>
  </g>
</svg>
