<svg xmlns="http://www.w3.org/2000/svg" width="16" height="16" viewBox="0 0 16 16">
  <defs>
    <linearGradient id="safari-pinned-tab-a" x1="72.679%" x2="50%" y1="45.553%" y2="100%">
      <stop offset="0%" stop-color="#EEE"/>
      <stop offset="100%" stop-color="#D8D8D8"/>
    </linearGradient>
  </defs>
  <g fill="none" fill-rule="evenodd">
    <rect width="16" height="16" fill="url(#safari-pinned-tab-a)" fill-rule="nonzero" rx="8"/>
    <g transform="translate(3.32 2.357)">
      <path fill="#000" d="M1.94422443,4.44629349 L0.69214894,4.69022544 L0.00192660517,1.13126916 L1.2590104,0.886361479 C2.22561267,0.69804601 3.11148453,1.19225499 3.33344601,2.33674305 C3.55443398,3.47621142 2.90581841,4.25895375 1.94422443,4.44629349 Z"/>
      <path fill="#000" d="M0.520441806,0.306301184 L1.76563966,0.307172134 C2.45968436,0.307657581 2.86823151,0.716935722 2.86862772,1.28441293 C2.86889543,1.66784348 2.64455144,1.95398123 2.33333051,2.06623645 C2.71614714,2.16875231 2.98174919,2.5012444 2.98204902,2.93068661 C2.98245594,3.51350104 2.53366089,3.93240433 1.86002927,3.93193316 L0.522972557,3.93099796 L0.520441806,0.306301184 Z" transform="rotate(19 -17.28 6.662)"/>
      <polygon fill="#E6ADCF" points="9.792 3.86 9.185 3.86 9.184 1.19 8.057 3.859 7.527 3.859 6.409 1.2 6.409 3.859 5.812 3.859 5.811 .233 6.628 .234 7.802 3 8.96 .234 9.791 .234" transform="rotate(7 7.802 2.047)"/>
      <polygon fill="#29BDAD" points="8.411 11.802 7.284 10.233 6.804 10.76 6.804 11.803 6.192 11.803 6.193 8.177 6.805 8.177 6.805 9.916 8.361 8.177 9.168 8.177 7.703 9.778 9.182 11.802" transform="rotate(-8 7.687 9.99)"/>
    </g>
  </g>
</svg>
